<svg width="199" height="19" viewBox="0 0 199 19" fill="none" xmlns="http://www.w3.org/2000/svg">
<path d="M8.64844 18C8.49219 17.6953 8.37891 17.3164 8.30859 16.8633C7.48828 17.7773 6.42188 18.2344 5.10938 18.2344C3.86719 18.2344 2.83594 17.875 2.01562 17.1562C1.20312 16.4375 0.796875 15.5312 0.796875 14.4375C0.796875 13.0938 1.29297 12.0625 2.28516 11.3438C3.28516 10.625 4.72656 10.2617 6.60938 10.2539H8.16797V9.52734C8.16797 8.94141 8.01562 8.47266 7.71094 8.12109C7.41406 7.76953 6.94141 7.59375 6.29297 7.59375C5.72266 7.59375 5.27344 7.73047 4.94531 8.00391C4.625 8.27734 4.46484 8.65234 4.46484 9.12891H1.07812C1.07812 8.39453 1.30469 7.71484 1.75781 7.08984C2.21094 6.46484 2.85156 5.97656 3.67969 5.625C4.50781 5.26562 5.4375 5.08594 6.46875 5.08594C8.03125 5.08594 9.26953 5.48047 10.1836 6.26953C11.1055 7.05078 11.5664 8.15234 11.5664 9.57422V15.0703C11.5742 16.2734 11.7422 17.1836 12.0703 17.8008V18H8.64844ZM5.84766 15.6445C6.34766 15.6445 6.80859 15.5352 7.23047 15.3164C7.65234 15.0898 7.96484 14.7891 8.16797 14.4141V12.2344H6.90234C5.20703 12.2344 4.30469 12.8203 4.19531 13.9922L4.18359 14.1914C4.18359 14.6133 4.33203 14.9609 4.62891 15.2344C4.92578 15.5078 5.33203 15.6445 5.84766 15.6445ZM21.6806 11.5664C21.6806 9.58984 22.122 8.01562 23.0048 6.84375C23.8955 5.67188 25.1103 5.08594 26.6494 5.08594C27.8838 5.08594 28.9033 5.54688 29.708 6.46875V0H33.1064V18H30.0478L29.8838 16.6523C29.04 17.707 27.9541 18.2344 26.6259 18.2344C25.1338 18.2344 23.9345 17.6484 23.0283 16.4766C22.1298 15.2969 21.6806 13.6602 21.6806 11.5664ZM25.0673 11.8125C25.0673 13 25.2744 13.9102 25.6884 14.543C26.1025 15.1758 26.7041 15.4922 27.4931 15.4922C28.54 15.4922 29.2783 15.0508 29.708 14.168V9.16406C29.2861 8.28125 28.5556 7.83984 27.5166 7.83984C25.8838 7.83984 25.0673 9.16406 25.0673 11.8125ZM51.1191 18C50.9628 17.6953 50.8495 17.3164 50.7792 16.8633C49.9589 17.7773 48.8925 18.2344 47.58 18.2344C46.3378 18.2344 45.3066 17.875 44.4863 17.1562C43.6738 16.4375 43.2675 15.5312 43.2675 14.4375C43.2675 13.0938 43.7636 12.0625 44.7558 11.3438C45.7558 10.625 47.1972 10.2617 49.08 10.2539H50.6386V9.52734C50.6386 8.94141 50.4863 8.47266 50.1816 8.12109C49.8847 7.76953 49.412 7.59375 48.7636 7.59375C48.1933 7.59375 47.7441 7.73047 47.4159 8.00391C47.0956 8.27734 46.9355 8.65234 46.9355 9.12891H43.5488C43.5488 8.39453 43.7753 7.71484 44.2284 7.08984C44.6816 6.46484 45.3222 5.97656 46.1503 5.625C46.9784 5.26562 47.9081 5.08594 48.9394 5.08594C50.5019 5.08594 51.7402 5.48047 52.6542 6.26953C53.5761 7.05078 54.037 8.15234 54.037 9.57422V15.0703C54.0448 16.2734 54.2128 17.1836 54.5409 17.8008V18H51.1191ZM48.3183 15.6445C48.8183 15.6445 49.2792 15.5352 49.7011 15.3164C50.123 15.0898 50.4355 14.7891 50.6386 14.4141V12.2344H49.373C47.6777 12.2344 46.7753 12.8203 46.6659 13.9922L46.6542 14.1914C46.6542 14.6133 46.8027 14.9609 47.0995 15.2344C47.3964 15.5078 47.8027 15.6445 48.3183 15.6445ZM67.8544 5.32031L67.9598 6.73828C68.8583 5.63672 70.0731 5.08594 71.6044 5.08594C73.2372 5.08594 74.3583 5.73047 74.9677 7.01953C75.8583 5.73047 77.1278 5.08594 78.7762 5.08594C80.1512 5.08594 81.1747 5.48828 81.8466 6.29297C82.5184 7.08984 82.8544 8.29297 82.8544 9.90234V18H79.4559V9.91406C79.4559 9.19531 79.3153 8.67188 79.0341 8.34375C78.7528 8.00781 78.2567 7.83984 77.5458 7.83984C76.5302 7.83984 75.827 8.32422 75.4364 9.29297L75.4481 18H72.0614V9.92578C72.0614 9.19141 71.9169 8.66016 71.6278 8.33203C71.3387 8.00391 70.8466 7.83984 70.1512 7.83984C69.1903 7.83984 68.495 8.23828 68.0653 9.03516V18H64.6786V5.32031H67.8544ZM100.633 8.49609C100.172 8.43359 99.7655 8.40234 99.4139 8.40234C98.1327 8.40234 97.2928 8.83594 96.8944 9.70312V18H93.5077V5.32031H96.7069L96.8006 6.83203C97.4803 5.66797 98.4217 5.08594 99.6248 5.08594C99.9998 5.08594 100.351 5.13672 100.68 5.23828L100.633 8.49609ZM117.309 18C117.153 17.6953 117.04 17.3164 116.97 16.8633C116.149 17.7773 115.083 18.2344 113.77 18.2344C112.528 18.2344 111.497 17.875 110.677 17.1562C109.864 16.4375 109.458 15.5312 109.458 14.4375C109.458 13.0938 109.954 12.0625 110.946 11.3438C111.946 10.625 113.387 10.2617 115.27 10.2539H116.829V9.52734C116.829 8.94141 116.677 8.47266 116.372 8.12109C116.075 7.76953 115.602 7.59375 114.954 7.59375C114.384 7.59375 113.934 7.73047 113.606 8.00391C113.286 8.27734 113.126 8.65234 113.126 9.12891H109.739C109.739 8.39453 109.966 7.71484 110.419 7.08984C110.872 6.46484 111.512 5.97656 112.341 5.625C113.169 5.26562 114.098 5.08594 115.13 5.08594C116.692 5.08594 117.93 5.48047 118.845 6.26953C119.766 7.05078 120.227 8.15234 120.227 9.57422V15.0703C120.235 16.2734 120.403 17.1836 120.731 17.8008V18H117.309ZM114.509 15.6445C115.009 15.6445 115.47 15.5352 115.891 15.3164C116.313 15.0898 116.626 14.7891 116.829 14.4141V12.2344H115.563C113.868 12.2344 112.966 12.8203 112.856 13.9922L112.845 14.1914C112.845 14.6133 112.993 14.9609 113.29 15.2344C113.587 15.5078 113.993 15.6445 114.509 15.6445ZM137.736 14.4961C137.736 14.082 137.529 13.7578 137.115 13.5234C136.709 13.2812 136.053 13.0664 135.146 12.8789C132.131 12.2461 130.623 10.9648 130.623 9.03516C130.623 7.91016 131.088 6.97266 132.017 6.22266C132.955 5.46484 134.178 5.08594 135.685 5.08594C137.295 5.08594 138.58 5.46484 139.541 6.22266C140.51 6.98047 140.994 7.96484 140.994 9.17578H137.607C137.607 8.69141 137.451 8.29297 137.138 7.98047C136.826 7.66016 136.338 7.5 135.674 7.5C135.103 7.5 134.662 7.62891 134.349 7.88672C134.037 8.14453 133.881 8.47266 133.881 8.87109C133.881 9.24609 134.056 9.55078 134.408 9.78516C134.767 10.0117 135.369 10.2109 136.213 10.3828C137.056 10.5469 137.767 10.7344 138.345 10.9453C140.135 11.6016 141.029 12.7383 141.029 14.3555C141.029 15.5117 140.533 16.4492 139.541 17.168C138.549 17.8789 137.267 18.2344 135.697 18.2344C134.635 18.2344 133.689 18.0469 132.861 17.6719C132.041 17.2891 131.396 16.7695 130.928 16.1133C130.459 15.4492 130.224 14.7344 130.224 13.9688H133.435C133.467 14.5703 133.689 15.0312 134.103 15.3516C134.517 15.6719 135.072 15.832 135.767 15.832C136.416 15.832 136.904 15.7109 137.232 15.4688C137.568 15.2188 137.736 14.8945 137.736 14.4961ZM154.565 6.70312C155.464 5.625 156.592 5.08594 157.952 5.08594C160.702 5.08594 162.096 6.68359 162.135 9.87891V18H158.749V9.97266C158.749 9.24609 158.592 8.71094 158.28 8.36719C157.967 8.01562 157.448 7.83984 156.721 7.83984C155.729 7.83984 155.01 8.22266 154.565 8.98828V18H151.178V0H154.565V6.70312ZM176.304 18H172.906V5.32031H176.304V18ZM172.707 2.03906C172.707 1.53125 172.875 1.11328 173.211 0.785156C173.554 0.457031 174.019 0.292969 174.605 0.292969C175.183 0.292969 175.644 0.457031 175.988 0.785156C176.332 1.11328 176.504 1.53125 176.504 2.03906C176.504 2.55469 176.328 2.97656 175.976 3.30469C175.633 3.63281 175.175 3.79688 174.605 3.79688C174.035 3.79688 173.574 3.63281 173.222 3.30469C172.879 2.97656 172.707 2.55469 172.707 2.03906ZM186.618 11.5664C186.618 9.58984 187.059 8.01562 187.942 6.84375C188.833 5.67188 190.048 5.08594 191.587 5.08594C192.821 5.08594 193.84 5.54688 194.645 6.46875V0H198.044V18H194.985L194.821 16.6523C193.977 17.707 192.891 18.2344 191.563 18.2344C190.071 18.2344 188.872 17.6484 187.965 16.4766C187.067 15.2969 186.618 13.6602 186.618 11.5664ZM190.005 11.8125C190.005 13 190.212 13.9102 190.626 14.543C191.04 15.1758 191.641 15.4922 192.43 15.4922C193.477 15.4922 194.215 15.0508 194.645 14.168V9.16406C194.223 8.28125 193.493 7.83984 192.454 7.83984C190.821 7.83984 190.005 9.16406 190.005 11.8125Z" fill="#221284"/>
</svg>
