<svg width="32" height="32" viewBox="0 0 32 32" fill="none" xmlns="http://www.w3.org/2000/svg">
<path fill-rule="evenodd" clip-rule="evenodd" d="M16 32C24.8366 32 32 24.8366 32 16C32 7.16344 24.8366 0 16 0C7.16344 0 0 7.16344 0 16C0 24.8366 7.16344 32 16 32ZM16.2228 15.102C14.9729 15.102 8.5332 11.4502 8.5332 11.4502V10.88C8.5332 10.1734 9.10664 9.6 9.81448 9.6H22.6311C23.3396 9.6 23.913 10.1734 23.913 10.88L23.9028 11.52C23.9028 11.52 17.5329 15.102 16.2228 15.102ZM23.9028 13.44C23.9028 13.44 17.593 16.862 16.2228 16.862C14.9729 16.862 8.5428 13.44 8.54344 13.44L8.5332 21.12C8.5332 21.8266 9.10728 22.4 9.81448 22.4H22.6311C23.3396 22.4 23.913 21.8266 23.913 21.12L23.9028 13.44Z" fill="#221284"/>
</svg>
